<svg width="30" height="25" viewBox="0 0 30 25" fill="none" xmlns="http://www.w3.org/2000/svg">
<path d="M25.5 0H4.5C3.30653 0 2.16193 0.49386 1.31802 1.37294C0.474106 2.25201 0 3.4443 0 4.6875V20.3125C0 21.5557 0.474106 22.748 1.31802 23.6271C2.16193 24.5061 3.30653 25 4.5 25H25.5C26.6935 25 27.8381 24.5061 28.682 23.6271C29.5259 22.748 30 21.5557 30 20.3125V4.6875C30 3.4443 29.5259 2.25201 28.682 1.37294C27.8381 0.49386 26.6935 0 25.5 0ZM4.5 3.125H25.5C25.8978 3.125 26.2794 3.28962 26.5607 3.58265C26.842 3.87567 27 4.2731 27 4.6875L15 12.3125L3 4.6875C3 4.2731 3.15804 3.87567 3.43934 3.58265C3.72064 3.28962 4.10218 3.125 4.5 3.125ZM27 20.3125C27 20.7269 26.842 21.1243 26.5607 21.4174C26.2794 21.7104 25.8978 21.875 25.5 21.875H4.5C4.10218 21.875 3.72064 21.7104 3.43934 21.4174C3.15804 21.1243 3 20.7269 3 20.3125V8.25L14.22 15.3906C14.448 15.5278 14.7067 15.6 14.97 15.6C15.2333 15.6 15.492 15.5278 15.72 15.3906L27 8.25V20.3125Z" fill="black"/>
</svg>
