<svg width="120" height="120" viewBox="0 0 120 120" fill="none" xmlns="http://www.w3.org/2000/svg">
<circle cx="60" cy="60" r="60" fill="#27033D"/>
<path d="M60 20C49.145 20 47.78 20.05 43.515 20.24C39.25 20.44 36.345 21.11 33.8 22.1C31.1305 23.1041 28.7125 24.6791 26.715 26.715C24.6804 28.7135 23.1055 31.1312 22.1 33.8C21.11 36.34 20.435 39.25 20.24 43.5C20.05 47.775 20 49.135 20 60.005C20 70.865 20.05 72.225 20.24 76.49C20.44 80.75 21.11 83.655 22.1 86.2C23.125 88.83 24.49 91.06 26.715 93.285C28.935 95.51 31.165 96.88 33.795 97.9C36.345 98.89 39.245 99.565 43.505 99.76C47.775 99.95 49.135 100 60 100C70.865 100 72.22 99.95 76.49 99.76C80.745 99.56 83.66 98.89 86.205 97.9C88.8728 96.8954 91.2891 95.3204 93.285 93.285C95.51 91.06 96.875 88.83 97.9 86.2C98.885 83.655 99.56 80.75 99.76 76.49C99.95 72.225 100 70.865 100 60C100 49.135 99.95 47.775 99.76 43.505C99.56 39.25 98.885 36.34 97.9 33.8C96.8946 31.1311 95.3197 28.7134 93.285 26.715C91.2882 24.6784 88.87 23.1032 86.2 22.1C83.65 21.11 80.74 20.435 76.485 20.24C72.215 20.05 70.86 20 59.99 20H60.005H60ZM56.415 27.21H60.005C70.685 27.21 71.95 27.245 76.165 27.44C80.065 27.615 82.185 28.27 83.595 28.815C85.46 29.54 86.795 30.41 88.195 31.81C89.595 33.21 90.46 34.54 91.185 36.41C91.735 37.815 92.385 39.935 92.56 43.835C92.755 48.05 92.795 49.315 92.795 59.99C92.795 70.665 92.755 71.935 92.56 76.15C92.385 80.05 91.73 82.165 91.185 83.575C90.5437 85.3118 89.5201 86.8822 88.19 88.17C86.79 89.57 85.46 90.435 83.59 91.16C82.19 91.71 80.07 92.36 76.165 92.54C71.95 92.73 70.685 92.775 60.005 92.775C49.325 92.775 48.055 92.73 43.84 92.54C39.94 92.36 37.825 91.71 36.415 91.16C34.6775 90.5196 33.1056 89.4979 31.815 88.17C30.4838 86.8802 29.4586 85.3083 28.815 83.57C28.27 82.165 27.615 80.045 27.44 76.145C27.25 71.93 27.21 70.665 27.21 59.98C27.21 49.3 27.25 48.04 27.44 43.825C27.62 39.925 28.27 37.805 28.82 36.395C29.545 34.53 30.415 33.195 31.815 31.795C33.215 30.395 34.545 29.53 36.415 28.805C37.825 28.255 39.94 27.605 43.84 27.425C47.53 27.255 48.96 27.205 56.415 27.2V27.21ZM81.355 33.85C80.7247 33.85 80.1005 33.9742 79.5181 34.2154C78.9358 34.4566 78.4066 34.8102 77.9609 35.2559C77.5152 35.7016 77.1616 36.2308 76.9204 36.8131C76.6792 37.3955 76.555 38.0197 76.555 38.65C76.555 39.2803 76.6792 39.9045 76.9204 40.4869C77.1616 41.0692 77.5152 41.5984 77.9609 42.0441C78.4066 42.4898 78.9358 42.8434 79.5181 43.0846C80.1005 43.3258 80.7247 43.45 81.355 43.45C82.628 43.45 83.8489 42.9443 84.7491 42.0441C85.6493 41.1439 86.155 39.923 86.155 38.65C86.155 37.377 85.6493 36.1561 84.7491 35.2559C83.8489 34.3557 82.628 33.85 81.355 33.85ZM60.005 39.46C57.2804 39.4175 54.5745 39.9174 52.0449 40.9307C49.5153 41.944 47.2126 43.4504 45.2708 45.3621C43.3289 47.2739 41.7868 49.5528 40.7342 52.0663C39.6816 54.5798 39.1395 57.2775 39.1395 60.0025C39.1395 62.7275 39.6816 65.4252 40.7342 67.9387C41.7868 70.4522 43.3289 72.7311 45.2708 74.6429C47.2126 76.5546 49.5153 78.061 52.0449 79.0743C54.5745 80.0876 57.2804 80.5875 60.005 80.545C65.3977 80.4609 70.5411 78.2596 74.3249 74.4163C78.1087 70.5729 80.2295 65.3959 80.2295 60.0025C80.2295 54.6091 78.1087 49.4321 74.3249 45.5887C70.5411 41.7454 65.3977 39.5441 60.005 39.46ZM60.005 46.665C63.5417 46.665 66.9335 48.0699 69.4343 50.5707C71.9351 53.0715 73.34 56.4633 73.34 60C73.34 63.5367 71.9351 66.9285 69.4343 69.4293C66.9335 71.9301 63.5417 73.335 60.005 73.335C56.4683 73.335 53.0765 71.9301 50.5757 69.4293C48.0749 66.9285 46.67 63.5367 46.67 60C46.67 56.4633 48.0749 53.0715 50.5757 50.5707C53.0765 48.0699 56.4683 46.665 60.005 46.665Z" fill="white"/>
</svg>
