<svg width="50" height="50" viewBox="0 0 50 50" fill="none" xmlns="http://www.w3.org/2000/svg">
<path d="M8.36875 36.4805C8.69312 36.8294 8.94167 37.2507 9.09669 37.7143C9.25172 38.1779 9.3094 38.6725 9.26562 39.1627C9.046 41.4317 8.62961 43.6739 8.02187 45.8601C12.3812 44.7785 15.0438 43.5261 16.2531 42.8697C16.9391 42.4974 17.729 42.4092 18.4719 42.6219C20.6014 43.2303 22.7961 43.5365 25 43.5328C37.4875 43.5328 46.875 34.133 46.875 23.4407C46.875 12.7518 37.4875 3.34867 25 3.34867C12.5125 3.34867 3.125 12.7518 3.125 23.4407C3.125 28.3566 5.05312 32.9175 8.36875 36.4805ZM6.82812 49.557C6.08771 49.7143 5.3449 49.8583 4.6 49.989C3.975 50.0962 3.5 49.3996 3.74688 48.7768C4.02435 48.0756 4.27867 47.3641 4.50938 46.6437L4.51875 46.6102C5.29375 44.1991 5.925 41.4264 6.15625 38.8446C2.32188 34.7257 0 29.3344 0 23.4407C0 10.4947 11.1937 0 25 0C38.8063 0 50 10.4947 50 23.4407C50 36.3867 38.8063 46.8814 25 46.8814C22.5239 46.885 20.0581 46.5405 17.6656 45.8567C16.0406 46.7374 12.5437 48.3415 6.82812 49.557Z" fill="white"/>
<path d="M12.5 15.0691C12.5 14.6251 12.6646 14.1992 12.9576 13.8852C13.2507 13.5712 13.6481 13.3948 14.0625 13.3948H35.9375C36.3519 13.3948 36.7493 13.5712 37.0424 13.8852C37.3354 14.1992 37.5 14.6251 37.5 15.0691C37.5 15.5132 37.3354 15.939 37.0424 16.253C36.7493 16.567 36.3519 16.7434 35.9375 16.7434H14.0625C13.6481 16.7434 13.2507 16.567 12.9576 16.253C12.6646 15.939 12.5 15.5132 12.5 15.0691ZM12.5 23.4408C12.5 22.9967 12.6646 22.5709 12.9576 22.2569C13.2507 21.9429 13.6481 21.7665 14.0625 21.7665H35.9375C36.3519 21.7665 36.7493 21.9429 37.0424 22.2569C37.3354 22.5709 37.5 22.9967 37.5 23.4408C37.5 23.8849 37.3354 24.3107 37.0424 24.6247C36.7493 24.9387 36.3519 25.1151 35.9375 25.1151H14.0625C13.6481 25.1151 13.2507 24.9387 12.9576 24.6247C12.6646 24.3107 12.5 23.8849 12.5 23.4408ZM12.5 31.8125C12.5 31.3684 12.6646 30.9425 12.9576 30.6285C13.2507 30.3145 13.6481 30.1381 14.0625 30.1381H26.5625C26.9769 30.1381 27.3743 30.3145 27.6674 30.6285C27.9604 30.9425 28.125 31.3684 28.125 31.8125C28.125 32.2565 27.9604 32.6824 27.6674 32.9964C27.3743 33.3104 26.9769 33.4868 26.5625 33.4868H14.0625C13.6481 33.4868 13.2507 33.3104 12.9576 32.9964C12.6646 32.6824 12.5 32.2565 12.5 31.8125Z" fill="white"/>
</svg>
