<svg width="30" height="30" viewBox="0 0 30 30" fill="none" xmlns="http://www.w3.org/2000/svg">
<path d="M29.9891 13.5C29.9215 11.8048 29.5204 10.1395 28.809 8.59925C28.0345 6.91851 26.9387 5.40549 25.5834 4.14544C22.7318 1.47219 18.9732 0 15 0C12.0333 -9.20954e-06 9.13321 0.87972 6.66646 2.52794C4.19972 4.17616 2.27713 6.51884 1.14181 9.25974C0.00649797 12.0006 -0.290552 15.0166 0.28823 17.9264C0.867011 20.8361 2.29563 23.5088 4.39342 25.6066C7.18772 28.4009 10.9718 29.9797 14.9235 29.9998C18.8752 30.02 22.6752 28.4799 25.4978 25.7142L24.0978 24.2857C21.6724 26.6732 18.4033 28.0078 15 28C7.83185 28 2.00005 22.1682 2.00005 15C2.00005 7.83181 7.83185 2 15 2C22.0468 2 28 7.49531 28 14V16.25C28 18.0421 26.4299 19.5 24.5 19.5C22.5701 19.5 21 18.0421 21 16.25V9H19V10.6719C18.0719 9.80991 16.9038 9.25027 15.6505 9.06716C14.3971 8.88406 13.1177 9.08614 11.9818 9.64664C10.8459 10.2071 9.90717 11.0996 9.28996 12.2057C8.67276 13.3118 8.40624 14.5793 8.52573 15.8403C8.64523 17.1013 9.14509 18.2963 9.95908 19.2667C10.7731 20.2372 11.8628 20.9374 13.0837 21.2746C14.3047 21.6117 15.5993 21.5699 16.7959 21.1546C17.9925 20.7394 19.0348 19.9703 19.7844 18.9492C20.7473 20.4762 22.5006 21.5 24.5 21.5C27.5327 21.5 30 19.1449 30 16.25V13.5H29.9891ZM14.75 19.5C13.9095 19.5 13.0878 19.2507 12.3889 18.7837C11.6899 18.3167 11.1452 17.653 10.8235 16.8764C10.5019 16.0998 10.4177 15.2453 10.5817 14.4209C10.7457 13.5964 11.1505 12.8392 11.7448 12.2448C12.3392 11.6504 13.0965 11.2456 13.9209 11.0817C14.7453 10.9177 15.5998 11.0018 16.3764 11.3235C17.153 11.6452 17.8168 12.1899 18.2838 12.8888C18.7508 13.5877 19 14.4094 19 15.25C18.9987 16.3768 18.5506 17.457 17.7538 18.2538C16.9571 19.0505 15.8768 19.4987 14.75 19.5Z" fill="black"/>
</svg>
