<svg width="50" height="25" viewBox="0 0 50 25" fill="none" xmlns="http://www.w3.org/2000/svg">
<path fill-rule="evenodd" clip-rule="evenodd" d="M0.203716 23.2649C-0.0247015 22.5243 -0.0626859 21.6665 0.0981186 20.8804C0.258923 20.0943 0.605345 19.4441 1.06118 19.073L24.132 0.331003C24.3993 0.113337 24.6943 -5.16207e-07 24.9933 -5.16207e-07C25.2923 -5.16207e-07 25.5873 0.113337 25.8546 0.331003L48.9254 19.073C49.1531 19.2548 49.3564 19.508 49.5236 19.8181C49.6908 20.1282 49.8186 20.489 49.8995 20.8797C49.9805 21.2704 50.013 21.6833 49.9953 22.0945C49.9776 22.5058 49.9099 22.9072 49.7963 23.2758C49.6826 23.6443 49.5251 23.9727 49.333 24.2419C49.1408 24.5111 48.9178 24.7159 48.6767 24.8444C48.4356 24.9729 48.1813 25.0226 47.9283 24.9906C47.6753 24.9586 47.4288 24.8456 47.2028 24.6581L24.9933 6.62205L2.7838 24.6581C2.32795 25.0292 1.80004 25.0909 1.31618 24.8296C0.832325 24.5684 0.432162 24.0055 0.203716 23.2649Z" fill="black"/>
</svg>
