<svg width="100" height="76" viewBox="0 0 100 76" fill="none" xmlns="http://www.w3.org/2000/svg">
<path d="M6.25 75.5C6.25 75.5 0 75.5 0 69.25C0 63 6.25 44.25 37.5 44.25C68.75 44.25 75 63 75 69.25C75 75.5 68.75 75.5 68.75 75.5H6.25ZM37.5 38C42.4728 38 47.2419 36.0246 50.7583 32.5083C54.2746 28.9919 56.25 24.2228 56.25 19.25C56.25 14.2772 54.2746 9.50806 50.7583 5.99175C47.2419 2.47544 42.4728 0.5 37.5 0.5C32.5272 0.5 27.7581 2.47544 24.2417 5.99175C20.7254 9.50806 18.75 14.2772 18.75 19.25C18.75 24.2228 20.7254 28.9919 24.2417 32.5083C27.7581 36.0246 32.5272 38 37.5 38Z" fill="black"/>
<path fill-rule="evenodd" clip-rule="evenodd" d="M84.375 19.25C85.2038 19.25 85.9987 19.5792 86.5847 20.1653C87.1708 20.7513 87.5 21.5462 87.5 22.375V31.75H96.875C97.7038 31.75 98.4987 32.0792 99.0847 32.6653C99.6708 33.2513 100 34.0462 100 34.875C100 35.7038 99.6708 36.4987 99.0847 37.0847C98.4987 37.6708 97.7038 38 96.875 38H87.5V47.375C87.5 48.2038 87.1708 48.9987 86.5847 49.5847C85.9987 50.1708 85.2038 50.5 84.375 50.5C83.5462 50.5 82.7513 50.1708 82.1653 49.5847C81.5792 48.9987 81.25 48.2038 81.25 47.375V38H71.875C71.0462 38 70.2513 37.6708 69.6653 37.0847C69.0792 36.4987 68.75 35.7038 68.75 34.875C68.75 34.0462 69.0792 33.2513 69.6653 32.6653C70.2513 32.0792 71.0462 31.75 71.875 31.75H81.25V22.375C81.25 21.5462 81.5792 20.7513 82.1653 20.1653C82.7513 19.5792 83.5462 19.25 84.375 19.25Z" fill="black"/>
</svg>
