<svg width="50" height="50" viewBox="0 0 50 50" fill="none" xmlns="http://www.w3.org/2000/svg">
<path d="M0 1.66667C0 1.22464 0.175598 0.800716 0.488165 0.488155C0.800732 0.175595 1.22466 0 1.6667 0H6.6668C7.03858 0.000102705 7.39965 0.124502 7.69259 0.353416C7.98553 0.582329 8.19353 0.902613 8.2835 1.26333L9.63353 6.66667H48.3343C48.5808 6.66682 48.8242 6.72163 49.0469 6.82717C49.2697 6.93271 49.4663 7.08634 49.6225 7.277C49.7787 7.46765 49.8907 7.69059 49.9504 7.92974C50.0101 8.16888 50.016 8.4183 49.9677 8.66L46.6343 25.3267C46.5613 25.6901 46.3693 26.0189 46.0886 26.261C45.8079 26.503 45.4545 26.6446 45.0842 26.6633L13.7603 28.2367L14.717 33.3333H43.3342C43.7762 33.3333 44.2002 33.5089 44.5127 33.8215C44.8253 34.134 45.0009 34.558 45.0009 35C45.0009 35.442 44.8253 35.866 44.5127 36.1785C44.2002 36.4911 43.7762 36.6667 43.3342 36.6667H13.3336C12.945 36.6663 12.5688 36.5302 12.2699 36.2819C11.9711 36.0335 11.7684 35.6886 11.6969 35.3067L6.70013 8.69L5.36678 3.33333H1.6667C1.22466 3.33333 0.800732 3.15774 0.488165 2.84518C0.175598 2.53262 0 2.10869 0 1.66667ZM10.3402 10L13.1403 24.93L43.6209 23.4L46.3009 10H10.3402ZM16.667 36.6667C14.8989 36.6667 13.2031 37.369 11.9529 38.6193C10.7026 39.8695 10.0002 41.5652 10.0002 43.3333C10.0002 45.1014 10.7026 46.7971 11.9529 48.0474C13.2031 49.2976 14.8989 50 16.667 50C18.4351 50 20.1309 49.2976 21.3811 48.0474C22.6314 46.7971 23.3338 45.1014 23.3338 43.3333C23.3338 41.5652 22.6314 39.8695 21.3811 38.6193C20.1309 37.369 18.4351 36.6667 16.667 36.6667ZM40.0008 36.6667C38.2327 36.6667 36.5369 37.369 35.2867 38.6193C34.0364 39.8695 33.334 41.5652 33.334 43.3333C33.334 45.1014 34.0364 46.7971 35.2867 48.0474C36.5369 49.2976 38.2327 50 40.0008 50C41.769 50 43.4647 49.2976 44.7149 48.0474C45.9652 46.7971 46.6676 45.1014 46.6676 43.3333C46.6676 41.5652 45.9652 39.8695 44.7149 38.6193C43.4647 37.369 41.769 36.6667 40.0008 36.6667ZM16.667 40C17.5511 40 18.3989 40.3512 19.0241 40.9763C19.6492 41.6014 20.0004 42.4493 20.0004 43.3333C20.0004 44.2174 19.6492 45.0652 19.0241 45.6904C18.3989 46.3155 17.5511 46.6667 16.667 46.6667C15.7829 46.6667 14.9351 46.3155 14.3099 45.6904C13.6848 45.0652 13.3336 44.2174 13.3336 43.3333C13.3336 42.4493 13.6848 41.6014 14.3099 40.9763C14.9351 40.3512 15.7829 40 16.667 40ZM40.0008 40C40.8849 40 41.7327 40.3512 42.3579 40.9763C42.983 41.6014 43.3342 42.4493 43.3342 43.3333C43.3342 44.2174 42.983 45.0652 42.3579 45.6904C41.7327 46.3155 40.8849 46.6667 40.0008 46.6667C39.1167 46.6667 38.2689 46.3155 37.6437 45.6904C37.0186 45.0652 36.6674 44.2174 36.6674 43.3333C36.6674 42.4493 37.0186 41.6014 37.6437 40.9763C38.2689 40.3512 39.1167 40 40.0008 40Z" fill="white"/>
</svg>
