<svg width="100" height="76" viewBox="0 0 100 76" fill="none" xmlns="http://www.w3.org/2000/svg">
<path fill-rule="evenodd" clip-rule="evenodd" d="M99.0875 20.1627C99.3786 20.453 99.6095 20.7978 99.767 21.1775C99.9245 21.5572 100.006 21.9642 100.006 22.3752C100.006 22.7863 99.9245 23.1933 99.767 23.5729C99.6095 23.9526 99.3786 24.2974 99.0875 24.5877L80.3375 43.3377C80.0473 43.6287 79.7024 43.8596 79.3227 44.0172C78.9431 44.1747 78.5361 44.2558 78.125 44.2558C77.714 44.2558 77.307 44.1747 76.9273 44.0172C76.5477 43.8596 76.2028 43.6287 75.9125 43.3377L66.5375 33.9627C65.9507 33.3759 65.6211 32.5801 65.6211 31.7502C65.6211 30.9204 65.9507 30.1245 66.5375 29.5377C67.1243 28.9509 67.9202 28.6213 68.75 28.6213C69.5799 28.6213 70.3757 28.9509 70.9625 29.5377L78.125 36.7065L94.6625 20.1627C94.9528 19.8717 95.2977 19.6408 95.6773 19.4833C96.057 19.3257 96.464 19.2446 96.875 19.2446C97.2861 19.2446 97.6931 19.3257 98.0727 19.4833C98.4524 19.6408 98.7973 19.8717 99.0875 20.1627Z" fill="black"/>
<path d="M6.25 75.5C6.25 75.5 0 75.5 0 69.25C0 63 6.25 44.25 37.5 44.25C68.75 44.25 75 63 75 69.25C75 75.5 68.75 75.5 68.75 75.5H6.25ZM37.5 38C42.4728 38 47.2419 36.0246 50.7583 32.5083C54.2746 28.9919 56.25 24.2228 56.25 19.25C56.25 14.2772 54.2746 9.50806 50.7583 5.99175C47.2419 2.47544 42.4728 0.5 37.5 0.5C32.5272 0.5 27.7581 2.47544 24.2417 5.99175C20.7254 9.50806 18.75 14.2772 18.75 19.25C18.75 24.2228 20.7254 28.9919 24.2417 32.5083C27.7581 36.0246 32.5272 38 37.5 38Z" fill="black"/>
</svg>
