<svg width="26" height="82" viewBox="0 0 26 82" fill="none" xmlns="http://www.w3.org/2000/svg">
<path fill-rule="evenodd" clip-rule="evenodd" d="M23.2749 80.9404C22.5339 81.3116 21.6759 81.3734 20.8894 81.112C20.1029 80.8506 19.4525 80.2875 19.0811 79.5466L0.33115 42.0466C0.11339 41.612 3.8147e-06 41.1327 3.8147e-06 40.6466C3.8147e-06 40.1605 0.11339 39.6812 0.33115 39.2466L19.0811 1.74661C19.2631 1.37648 19.5164 1.04601 19.8267 0.774269C20.1369 0.502525 20.4978 0.294876 20.8887 0.163292C21.2796 0.0317078 21.6926 -0.0212021 22.104 0.00759888C22.5154 0.0364075 22.9171 0.14637 23.2858 0.331139C23.6545 0.515907 23.983 0.771828 24.2523 1.08415C24.5217 1.39648 24.7265 1.75903 24.8551 2.1509C24.9836 2.54277 25.0333 2.95621 25.0013 3.36739C24.9693 3.77856 24.8563 4.17934 24.6686 4.54661L6.6249 40.6466L24.6686 76.7466C25.0399 77.4876 25.1017 78.3457 24.8403 79.1321C24.5789 79.9186 24.0158 80.569 23.2749 80.9404Z" fill="#17CD00"/>
</svg>
