<svg width="120" height="120" viewBox="0 0 120 120" fill="none" xmlns="http://www.w3.org/2000/svg">
<circle cx="60" cy="60" r="60" fill="#27033D"/>
<path d="M65.7143 20H77.0286C77.8514 23.575 80.1143 28.085 84.0857 32.56C87.9714 36.945 93.1257 40 100 40V50C89.9829 50 82.4571 45.93 77.1429 40.855V75C77.1429 79.9445 75.4672 84.778 72.3277 88.8893C69.1882 93.0005 64.726 96.2048 59.5052 98.097C54.2845 99.9892 48.5397 100.484 42.9974 99.5196C37.4551 98.555 32.3642 96.174 28.3684 92.6777C24.3726 89.1814 21.6514 84.7268 20.549 79.8773C19.4466 75.0277 20.0124 70.0011 22.1749 65.4329C24.3374 60.8648 27.9995 56.9603 32.698 54.2133C37.3966 51.4662 42.9205 50 48.5714 50V60C45.1809 60 41.8665 60.8797 39.0474 62.528C36.2282 64.1762 34.031 66.5189 32.7335 69.2597C31.436 72.0006 31.0965 75.0166 31.758 77.9263C32.4194 80.8361 34.0521 83.5088 36.4496 85.6066C38.8471 87.7044 41.9016 89.133 45.227 89.7118C48.5524 90.2906 51.9993 89.9935 55.1317 88.8582C58.2642 87.7229 60.9415 85.8003 62.8252 83.3335C64.7089 80.8668 65.7143 77.9667 65.7143 75V20Z" fill="white"/>
</svg>
